<?xml version="1.0" standalone="no"?>
<!DOCTYPE svg PUBLIC "-//W3C//DTD SVG 20010904//EN"
 "http://www.w3.org/TR/2001/REC-SVG-20010904/DTD/svg10.dtd">
<svg version="1.0" xmlns="http://www.w3.org/2000/svg"
 width="500.000000pt" height="500.000000pt" viewBox="0 0 500.000000 500.000000"
 preserveAspectRatio="xMidYMid meet">

<g transform="translate(0.000000,500.000000) scale(0.100000,-0.100000)"
fill="#b0050e" stroke="none">
<path d="M2335 4724 c-218 -13 -533 -81 -648 -140 -16 -9 -53 -22 -82 -29 -94
-25 -359 -162 -430 -224 -11 -9 -38 -29 -61 -44 -45 -30 -334 -320 -405 -407
-67 -82 -224 -357 -269 -471 -149 -378 -195 -626 -185 -999 3 -107 10 -211 16
-230 6 -19 14 -70 19 -113 24 -217 113 -471 247 -707 102 -178 103 -179 241
-343 59 -71 216 -220 300 -286 51 -41 205 -142 307 -203 117 -70 304 -146 445
-183 36 -9 85 -22 110 -30 25 -8 83 -17 130 -20 47 -3 135 -13 195 -21 139
-19 445 -14 600 10 221 33 273 45 405 91 36 12 83 28 105 35 22 7 56 24 75 36
19 13 39 24 45 24 21 0 178 90 308 177 50 34 83 50 94 46 12 -5 15 -2 11 9 -4
10 23 42 83 97 192 178 372 423 480 656 79 172 87 191 122 300 46 141 56 178
67 245 5 30 16 88 24 127 24 117 39 349 33 510 -11 278 -32 422 -82 548 -13
33 -31 83 -41 110 -21 64 -138 300 -168 340 -13 17 -32 48 -43 70 -12 22 -31
49 -43 60 -13 11 -31 33 -41 49 -40 66 -123 160 -265 301 -200 198 -308 272
-624 425 -92 45 -358 119 -535 149 -106 18 -417 44 -470 39 -11 -1 -42 -3 -70
-4z m584 -148 c46 -9 132 -30 190 -47 58 -17 121 -35 138 -41 54 -15 303 -147
347 -183 23 -18 53 -36 68 -40 15 -4 68 -41 117 -84 49 -42 119 -101 156 -131
71 -59 192 -197 212 -242 6 -15 34 -57 62 -93 28 -36 51 -72 51 -80 0 -7 11
-27 25 -43 39 -47 174 -326 204 -422 14 -48 38 -174 45 -243 3 -31 17 -85 30
-120 44 -120 63 -413 37 -607 -31 -239 -85 -427 -193 -670 -40 -91 -141 -262
-209 -352 -37 -51 -84 -116 -103 -143 -50 -72 -298 -296 -414 -373 -107 -71
-213 -132 -282 -163 -25 -11 -72 -34 -105 -50 -33 -16 -85 -33 -115 -38 -30
-5 -104 -26 -165 -46 -79 -27 -133 -38 -190 -41 -44 -3 -127 -7 -185 -11 -58
-3 -125 -5 -150 -5 -85 1 -295 20 -340 32 -25 6 -67 15 -95 20 -96 18 -344
101 -469 159 -114 52 -296 160 -371 220 -243 193 -451 454 -602 755 -69 138
-110 252 -165 461 l-51 190 -4 206 c-6 225 -1 270 62 600 25 127 47 210 80
295 54 139 125 266 167 297 46 34 157 173 199 248 51 94 152 222 199 253 71
47 113 33 233 -80 69 -65 179 -134 213 -134 8 0 14 15 16 37 2 30 9 41 32 52
18 8 34 28 44 52 8 22 21 39 29 39 8 0 13 11 13 28 0 42 13 56 37 41 17 -10
23 -9 43 11 16 16 25 19 33 11 18 -18 75 -13 86 7 10 16 12 16 24 0 24 -30 60
-32 87 -4 13 15 31 26 41 26 22 0 49 37 49 67 0 13 -9 27 -22 34 l-21 11 21
17 c26 20 48 71 57 136 15 98 38 123 162 171 l88 34 235 -4 c162 -3 261 -9
319 -20z"/>
<path d="M3320 3741 c-160 -37 -296 -114 -415 -236 -86 -88 -138 -183 -169
-307 l-24 -93 -153 -6 c-169 -7 -206 -12 -261 -40 -58 -30 -91 -81 -96 -150
-5 -65 8 -96 55 -126 23 -16 60 -19 277 -23 l250 -5 57 -85 c32 -47 119 -157
194 -244 212 -249 253 -321 262 -471 13 -191 -72 -358 -236 -464 -90 -58 -153
-74 -274 -69 -89 3 -110 8 -167 34 -75 36 -151 108 -185 175 -31 60 -49 167
-41 237 9 76 65 188 128 258 31 34 99 88 164 130 131 85 157 116 162 193 4 73
-20 114 -85 143 -133 59 -338 -31 -525 -231 -155 -166 -218 -329 -218 -565 0
-195 60 -358 181 -490 150 -163 330 -236 587 -236 211 0 371 43 516 141 283
189 428 510 371 820 -35 191 -98 312 -289 551 -69 87 -126 162 -126 168 0 6
54 10 149 10 254 0 400 40 514 140 207 183 221 521 29 708 -68 67 -155 116
-243 137 -88 20 -291 18 -389 -4z m330 -351 c57 -32 83 -79 76 -138 -8 -58
-30 -89 -90 -120 -51 -27 -52 -27 -303 -30 -288 -4 -273 -9 -229 83 41 88 141
170 255 212 91 33 224 29 291 -7z"/>
</g>
</svg>
